<?xml version="1.0" encoding="utf-8"?>
<!-- Generator: Adobe Illustrator 22.0.1, SVG Export Plug-In . SVG Version: 6.00 Build 0)  -->
<svg version="1.1" id="Layer_1" xmlns="http://www.w3.org/2000/svg" xmlns:xlink="http://www.w3.org/1999/xlink" x="0px" y="0px"
	 viewBox="0 0 208 64" style="enable-background:new 0 0 208 64;" xml:space="preserve">
<style type="text/css">
	.st0{fill:#FFFFFF;}
	.st1{fill:#4D95D1;}
	.st2{fill:url(#SVGID_1_);}
	.st3{fill:url(#SVGID_2_);}
	.st4{fill:url(#SVGID_3_);}
	.st5{fill:url(#SVGID_4_);}
	.st6{fill:url(#SVGID_5_);}
	.st7{fill:url(#SVGID_6_);}
</style>
<g>
	<g>
		<g>
			<g>
				<path class="st0" d="M0,48.8h3.8c0,1.8,0.1,3.1,0.3,4c0.2,0.9,0.6,1.6,1.2,2.1c0.6,0.5,1.5,0.8,2.6,1c1.2,0.2,2.9,0.2,5.1,0.2
					c2,0,3.6-0.1,4.8-0.4c1.2-0.2,2.1-0.6,2.7-1.1c0.6-0.5,1-1.1,1.2-1.9c0.2-0.8,0.3-1.8,0.3-3c0-1.6-0.2-2.8-0.6-3.6
					c-0.4-0.8-1.3-1.4-2.5-1.7c-1.2-0.3-3.2-0.5-5.8-0.6c-2.2-0.1-4.2-0.3-5.7-0.6c-1.6-0.3-2.9-0.8-3.9-1.4
					c-1.1-0.7-1.9-1.6-2.4-2.8c-0.6-1.2-0.8-2.7-0.8-4.6c0-1.7,0.2-3.1,0.7-4.3c0.5-1.2,1.2-2.1,2.3-2.9c1-0.7,2.3-1.3,3.9-1.6
					c1.6-0.3,3.6-0.5,5.9-0.5c2.8,0,5.1,0.2,6.8,0.7c1.7,0.5,3.1,1.4,4,2.7c0.9,1.3,1.4,3.2,1.4,5.7l0,0.5h-3.8
					c0-1.3-0.1-2.3-0.3-3.1c-0.2-0.8-0.6-1.4-1.2-1.9c-0.6-0.5-1.4-0.8-2.5-1c-1.1-0.2-2.5-0.3-4.4-0.3c-2.5,0-4.5,0.2-5.7,0.6
					c-1.3,0.4-2.2,1-2.6,1.8c-0.5,0.8-0.7,2-0.7,3.5c0,1.6,0.3,2.7,0.9,3.5c0.6,0.8,1.6,1.4,3.1,1.7c1.5,0.4,3.8,0.6,7,0.8
					c2.6,0.1,4.7,0.5,6.2,1s2.7,1.4,3.6,2.7c0.8,1.3,1.2,3.1,1.2,5.4c0,2-0.2,3.6-0.7,4.9c-0.5,1.3-1.2,2.3-2.2,3
					c-1,0.7-2.3,1.3-3.9,1.6c-1.6,0.3-3.7,0.5-6.1,0.5c-3.1,0-5.6-0.2-7.4-0.6c-1.8-0.4-3.2-1.2-4.2-2.5C0.5,55,0,53,0,50.3V48.8z"
					/>
				<path class="st0" d="M35.8,59.1l12.6-33.4H54l12.9,33.4h-4.1l-2.6-6.9H42.8L40,59.1H35.8z M59,49l-7.7-20.5L43.7,49H59z"/>
				<path class="st0" d="M99,59.1H81.4V25.7h16.7c3,0,5.3,0.6,6.7,1.9c1.4,1.3,2.1,3.4,2.1,6.4c0,1.4-0.1,2.6-0.3,3.5
					c-0.2,0.9-0.6,1.7-1.2,2.4c-0.6,0.7-1.6,1.3-2.8,1.7c1.5,0.4,2.6,0.9,3.4,1.6c0.8,0.7,1.3,1.5,1.6,2.5s0.4,2.3,0.4,3.9
					c0,3.2-0.7,5.6-2,7.2C104.5,58.3,102.2,59.1,99,59.1z M85.2,29v11.3h11c1.7,0,3.1-0.2,4.1-0.5c1-0.3,1.7-0.9,2.1-1.8
					c0.4-0.9,0.6-2.1,0.6-3.7c0-2-0.4-3.4-1.1-4.2c-0.7-0.7-2.2-1.1-4.2-1.1H85.2z M85.2,43.5v12.2h10.7c1.7,0,3-0.1,3.9-0.2
					c1-0.1,1.8-0.4,2.4-0.8s1.1-1,1.4-1.8c0.3-0.8,0.4-1.9,0.4-3.3c0-1.8-0.2-3.2-0.6-4c-0.4-0.9-1-1.4-1.9-1.7
					c-0.9-0.3-2.2-0.4-4-0.4H85.2z"/>
				<path class="st0" d="M147.7,25.7l-13.1,19.5v14h-3.9v-14L118,25.7h4.3l10.5,16l10.5-16H147.7z"/>
			</g>
		</g>
	</g>
	<g>
		<path class="st1" d="M199.1,14.9l8.8-3.3c0,0,0.1,0,0.1,0c0,0,0,0.1,0,0.1l-8.4,14.4L199.1,14.9z"/>
		<path class="st1" d="M184,37.2L166.5,9c0,0,0-0.1,0-0.1c0,0,0.1,0,0.1,0l0,0l10.9,5.7l9.2,19.3L184,37.2z"/>
		
			<linearGradient id="SVGID_1_" gradientUnits="userSpaceOnUse" x1="334.5528" y1="208.4602" x2="321.5427" y2="229.715" gradientTransform="matrix(0.9995 -3.071296e-02 -3.071296e-02 -0.9995 -145.8015 246.7387)">
			<stop  offset="0" style="stop-color:#1554A1;stop-opacity:0.4"/>
			<stop  offset="0.67" style="stop-color:#2D81C4;stop-opacity:0.17"/>
			<stop  offset="1" style="stop-color:#429BD5;stop-opacity:5.000000e-02"/>
		</linearGradient>
		<path class="st2" d="M184,37.2L166.5,9c0,0,0-0.1,0-0.1c0,0,0.1,0,0.1,0l0,0l10.9,5.7l9.2,19.3L184,37.2z"/>
		<path class="st1" d="M170.5,52.3l30.1-26.2l-1.4-11.2l-28.8,37.3C170.3,52.2,170.3,52.3,170.5,52.3
			C170.4,52.3,170.4,52.3,170.5,52.3z"/>
		
			<linearGradient id="SVGID_2_" gradientUnits="userSpaceOnUse" x1="342.7723" y1="230.4501" x2="332.6932" y2="215.2865" gradientTransform="matrix(0.9995 -3.071296e-02 -3.071296e-02 -0.9995 -145.8015 246.7387)">
			<stop  offset="0.47" style="stop-color:#65AADD"/>
			<stop  offset="0.67" style="stop-color:#549ED6"/>
			<stop  offset="0.79" style="stop-color:#4D95D1"/>
		</linearGradient>
		<path class="st3" d="M170,0.1L185.7,39l14.8-12.9L170,0.1C170.1,0,170,0,170,0.1C170,0.1,170,0.1,170,0.1z"/>
		
			<radialGradient id="SVGID_3_" cx="65.544" cy="657.0142" r="27.1966" gradientTransform="matrix(1.0046 0.9893 0.4912 -0.4988 -207.834 272.9756)" gradientUnits="userSpaceOnUse">
			<stop  offset="0.54" style="stop-color:#429BD5;stop-opacity:0"/>
			<stop  offset="0.67" style="stop-color:#2F81C4;stop-opacity:8.000000e-02"/>
			<stop  offset="0.97" style="stop-color:#1554A1;stop-opacity:0.25"/>
		</radialGradient>
		<path class="st4" d="M170,0.1L185.7,39l14.8-12.9L170,0.1C170.1,0,170,0,170,0.1C170,0.1,170,0.1,170,0.1z"/>
		
			<linearGradient id="SVGID_4_" gradientUnits="userSpaceOnUse" x1="353.157" y1="216.1339" x2="348.571" y2="212.5449" gradientTransform="matrix(0.9995 -3.071296e-02 -3.071296e-02 -0.9995 -145.8015 246.7387)">
			<stop  offset="0.51" style="stop-color:#429BD5;stop-opacity:0"/>
			<stop  offset="0.73" style="stop-color:#216DB4;stop-opacity:0.33"/>
			<stop  offset="0.85" style="stop-color:#1554A1;stop-opacity:0.5"/>
		</linearGradient>
		<polygon class="st5" points="194.4,20.9 200.5,26.1 199.1,14.8 		"/>
		
			<linearGradient id="SVGID_5_" gradientUnits="userSpaceOnUse" x1="338.379" y1="200.9226" x2="331.181" y2="195.0007" gradientTransform="matrix(0.9995 -3.071296e-02 -3.071296e-02 -0.9995 -145.8015 246.7387)">
			<stop  offset="3.000000e-02" style="stop-color:#1554A1;stop-opacity:0.6"/>
			<stop  offset="0.18" style="stop-color:#1D69B1;stop-opacity:0.43"/>
			<stop  offset="0.5" style="stop-color:#4299D4;stop-opacity:1.000000e-02"/>
			<stop  offset="0.51" style="stop-color:#429BD5;stop-opacity:0"/>
		</linearGradient>
		<path class="st6" d="M170.5,52.3L185.7,39l-1.8-4.5l-13.6,17.6c0,0,0,0.1,0,0.2C170.4,52.3,170.4,52.3,170.5,52.3z"/>
		
			<linearGradient id="SVGID_6_" gradientUnits="userSpaceOnUse" x1="358.465" y1="217.636" x2="351.1175" y2="218.3737" gradientTransform="matrix(0.9995 -3.071296e-02 -3.071296e-02 -0.9995 -145.8015 246.7387)">
			<stop  offset="0.51" style="stop-color:#429BD5;stop-opacity:0"/>
			<stop  offset="0.64" style="stop-color:#297CBF;stop-opacity:0.22"/>
			<stop  offset="0.79" style="stop-color:#1960AA;stop-opacity:0.42"/>
			<stop  offset="0.87" style="stop-color:#1554A1;stop-opacity:0.5"/>
		</linearGradient>
		<path class="st7" d="M199.1,14.9l1.2,9.8l7.6-13c0,0,0-0.1,0-0.1c0,0-0.1,0-0.1,0l0,0L199.1,14.9z"/>
	</g>
</g>
<title>сбис с птичкой</title>
</svg>
